<svg xmlns="http://www.w3.org/2000/svg" xmlns:xlink="http://www.w3.org/1999/xlink" width="500" zoomAndPan="magnify" viewBox="0 0 375 112.499997" height="150" preserveAspectRatio="xMidYMid meet" version="1.0"><defs><g/><clipPath id="64a748072b"><path d="M 0.828125 0 L 374.167969 0 L 374.167969 112.003906 L 0.828125 112.003906 Z M 0.828125 0 " clip-rule="nonzero"/></clipPath></defs><g clip-path="url(#64a748072b)"><path fill="#ffffff" d="M 0.828125 0 L 374.171875 0 L 374.171875 112.003906 L 0.828125 112.003906 Z M 0.828125 0 " fill-opacity="1" fill-rule="nonzero"/><path fill="#ffffff" d="M 0.828125 0 L 374.171875 0 L 374.171875 112.003906 L 0.828125 112.003906 Z M 0.828125 0 " fill-opacity="1" fill-rule="nonzero"/></g><g fill="#000000" fill-opacity="1"><g transform="translate(53.876323, 84.001653)"><g><path d="M 40.484375 -42.78125 C 39.390625 -43.382812 37.910156 -43.6875 36.046875 -43.6875 C 34.460938 -43.6875 33 -43.25 31.65625 -42.375 C 30.3125 -41.5 29.035156 -40.128906 27.828125 -38.265625 C 26.628906 -36.410156 25.578125 -33.894531 24.671875 -30.71875 C 23.773438 -27.539062 23.328125 -24.609375 23.328125 -21.921875 C 23.328125 -19.566406 23.773438 -17.707031 24.671875 -16.34375 C 25.578125 -14.976562 27.070312 -14.296875 29.15625 -14.296875 C 30.363281 -14.296875 31.5 -14.390625 32.5625 -14.578125 C 33.625 -14.765625 34.488281 -15.023438 35.15625 -15.359375 L 36.296875 -2.625 C 34.765625 -1.582031 32.789062 -0.742188 30.375 -0.109375 C 27.96875 0.515625 25.425781 0.828125 22.75 0.828125 C 16.394531 0.828125 11.613281 -1.179688 8.40625 -5.203125 C 5.207031 -9.234375 3.609375 -14.367188 3.609375 -20.609375 C 3.609375 -26.035156 4.726562 -31.550781 6.96875 -37.15625 C 9.21875 -42.769531 11.890625 -46.957031 14.984375 -49.71875 C 18.078125 -52.488281 21.128906 -54.445312 24.140625 -55.59375 C 27.148438 -56.75 30.410156 -57.328125 33.921875 -57.328125 C 36.710938 -57.328125 39.21875 -57.023438 41.4375 -56.421875 C 43.65625 -55.816406 45.445312 -54.96875 46.8125 -53.875 Z M 40.484375 -42.78125 "/></g></g></g><g fill="#000000" fill-opacity="1"><g transform="translate(90.33853, 84.001653)"><g><path d="M 18.484375 17.65625 L -0.65625 17.65625 L 9.859375 0 L 5.015625 -44.265625 L 23.984375 -44.265625 L 22.90625 -24.71875 C 22.90625 -22.800781 22.820312 -21.1875 22.65625 -19.875 C 22.5 -18.5625 22.3125 -17.4375 22.09375 -16.5 C 22.414062 -17.4375 22.8125 -18.570312 23.28125 -19.90625 C 23.75 -21.25 24.363281 -22.851562 25.125 -24.71875 L 33.09375 -44.265625 L 50.921875 -44.265625 Z M 18.484375 17.65625 "/></g></g></g><g fill="#000000" fill-opacity="1"><g transform="translate(131.071151, 84.001653)"><g><path d="M 32.9375 -32.03125 C 32.0625 -32.6875 30.992188 -33.015625 29.734375 -33.015625 C 28.578125 -33.015625 27.476562 -32.644531 26.4375 -31.90625 C 25.40625 -31.164062 24.503906 -30.066406 23.734375 -28.609375 C 22.960938 -27.160156 22.332031 -25.476562 21.84375 -23.5625 C 21.351562 -21.65625 21.109375 -19.960938 21.109375 -18.484375 C 21.109375 -16.566406 21.460938 -15.097656 22.171875 -14.078125 C 22.878906 -13.066406 23.726562 -12.5625 24.71875 -12.5625 C 26.75 -12.5625 28.28125 -12.945312 29.3125 -13.71875 L 30.546875 -2.625 C 29.347656 -1.582031 27.757812 -0.742188 25.78125 -0.109375 C 23.8125 0.515625 21.457031 0.828125 18.71875 0.828125 C 13.957031 0.828125 10.054688 -0.742188 7.015625 -3.890625 C 3.984375 -7.046875 2.46875 -11.332031 2.46875 -16.75 C 2.46875 -19.976562 3.023438 -23.316406 4.140625 -26.765625 C 5.265625 -30.222656 6.867188 -33.359375 8.953125 -36.171875 C 11.035156 -38.992188 13.648438 -41.1875 16.796875 -42.75 C 19.941406 -44.3125 23.238281 -45.09375 26.6875 -45.09375 C 29.207031 -45.09375 31.5625 -44.734375 33.75 -44.015625 C 35.9375 -43.304688 37.5 -42.515625 38.4375 -41.640625 Z M 32.9375 -32.03125 "/></g></g></g><g fill="#000000" fill-opacity="1"><g transform="translate(161.784734, 84.001653)"><g><path d="M 18.15625 0 L -0.171875 0 L 13.21875 -64.46875 L 31.53125 -64.46875 Z M 18.15625 0 "/></g></g></g><g fill="#000000" fill-opacity="1"><g transform="translate(183.13626, 84.001653)"><g><path d="M 41.234375 -9.03125 C 38.929688 -5.851562 36.066406 -3.414062 32.640625 -1.71875 C 29.222656 -0.0195312 25.269531 0.828125 20.78125 0.828125 C 15.082031 0.828125 10.601562 -0.800781 7.34375 -4.0625 C 4.09375 -7.320312 2.46875 -11.578125 2.46875 -16.828125 C 2.46875 -19.953125 3.015625 -23.179688 4.109375 -26.515625 C 5.203125 -29.859375 6.785156 -32.941406 8.859375 -35.765625 C 10.941406 -38.585938 13.722656 -40.847656 17.203125 -42.546875 C 20.679688 -44.242188 24.609375 -45.09375 28.984375 -45.09375 C 34.679688 -45.09375 39.15625 -43.460938 42.40625 -40.203125 C 45.664062 -36.941406 47.296875 -32.6875 47.296875 -27.4375 C 47.296875 -24.363281 46.722656 -21.128906 45.578125 -17.734375 C 44.429688 -14.335938 42.984375 -11.4375 41.234375 -9.03125 Z M 27.4375 -33.671875 C 25.675781 -33.671875 24.34375 -32.453125 23.4375 -30.015625 C 22.539062 -27.578125 21.773438 -24.863281 21.140625 -21.875 C 20.515625 -18.894531 20.203125 -16.640625 20.203125 -15.109375 C 20.203125 -12.703125 20.96875 -11.5 22.5 -11.5 C 24.25 -11.5 25.578125 -12.742188 26.484375 -15.234375 C 27.390625 -17.722656 28.140625 -20.363281 28.734375 -23.15625 C 29.335938 -25.945312 29.640625 -28.21875 29.640625 -29.96875 C 29.640625 -32.4375 28.90625 -33.671875 27.4375 -33.671875 Z M 27.4375 -33.671875 "/></g></g></g><g fill="#000000" fill-opacity="1"><g transform="translate(227.153819, 84.001653)"><g><path d="M 49.359375 -29.3125 L 43.203125 0 L 24.890625 0 L 31.046875 -30.0625 L 31.203125 -31.125 C 31.203125 -32.925781 30.082031 -33.828125 27.84375 -33.828125 L 25.21875 -33.59375 L 18.234375 0 L -0.171875 0 L 8.453125 -41.640625 C 11.023438 -42.617188 14.269531 -43.4375 18.1875 -44.09375 C 22.101562 -44.757812 26.140625 -45.09375 30.296875 -45.09375 C 36.984375 -45.09375 41.898438 -44.050781 45.046875 -41.96875 C 48.191406 -39.882812 49.765625 -36.925781 49.765625 -33.09375 C 49.765625 -32.050781 49.628906 -30.789062 49.359375 -29.3125 Z M 49.359375 -29.3125 "/></g></g></g><g fill="#000000" fill-opacity="1"><g transform="translate(273.635076, 84.001653)"><g><path d="M 44.921875 -19.46875 L 19.46875 -16.09375 C 19.738281 -14.34375 20.488281 -13.109375 21.71875 -12.390625 C 22.945312 -11.679688 24.519531 -11.328125 26.4375 -11.328125 C 28.632812 -11.328125 30.8125 -11.570312 32.96875 -12.0625 C 35.132812 -12.5625 36.984375 -13.164062 38.515625 -13.875 L 40.15625 -2.625 C 37.914062 -1.582031 35.21875 -0.742188 32.0625 -0.109375 C 28.914062 0.515625 25.566406 0.828125 22.015625 0.828125 C 15.828125 0.828125 11.019531 -0.828125 7.59375 -4.140625 C 4.175781 -7.453125 2.46875 -11.847656 2.46875 -17.328125 C 2.46875 -20.453125 3.015625 -23.613281 4.109375 -26.8125 C 5.203125 -30.019531 6.816406 -32.988281 8.953125 -35.71875 C 11.085938 -38.457031 13.851562 -40.703125 17.25 -42.453125 C 20.644531 -44.210938 24.554688 -45.09375 28.984375 -45.09375 C 34.410156 -45.09375 38.628906 -43.554688 41.640625 -40.484375 C 44.648438 -37.421875 46.15625 -33.289062 46.15625 -28.09375 C 46.15625 -25.40625 45.742188 -22.53125 44.921875 -19.46875 Z M 26.6875 -34.65625 C 25.207031 -34.65625 23.929688 -34.117188 22.859375 -33.046875 C 21.796875 -31.984375 20.976562 -30.671875 20.40625 -29.109375 C 19.832031 -27.546875 19.460938 -26.03125 19.296875 -24.5625 L 29.40625 -26.03125 C 29.726562 -27.34375 29.890625 -28.601562 29.890625 -29.8125 C 29.890625 -31.34375 29.628906 -32.53125 29.109375 -33.375 C 28.585938 -34.226562 27.78125 -34.65625 26.6875 -34.65625 Z M 26.6875 -34.65625 "/></g></g></g><g fill="#000000" fill-opacity="1"><g transform="translate(207.359004, 99.919215)"><g><path d="M 1.0625 0 L 1.0625 -8.96875 L 2.28125 -8.96875 L 2.28125 -1 L 6.8125 -1 L 6.8125 0 Z M 1.0625 0 "/></g></g></g><g fill="#000000" fill-opacity="1"><g transform="translate(219.877618, 99.919215)"><g><path d="M 7.421875 0 L 6.40625 -2.625 L 2.3125 -2.625 L 1.28125 0 L 0.03125 0 L 3.6875 -8.96875 L 5.0625 -8.96875 L 8.671875 0 Z M 4.359375 -8.046875 L 4.296875 -7.875 C 4.191406 -7.519531 4.035156 -7.066406 3.828125 -6.515625 L 2.6875 -3.5625 L 6.03125 -3.5625 L 4.890625 -6.53125 C 4.765625 -6.820312 4.644531 -7.148438 4.53125 -7.515625 Z M 4.359375 -8.046875 "/></g></g></g><g fill="#000000" fill-opacity="1"><g transform="translate(233.839395, 99.919215)"><g><path d="M 8.09375 -2.46875 C 8.09375 -1.644531 7.769531 -1.003906 7.125 -0.546875 C 6.476562 -0.0976562 5.566406 0.125 4.390625 0.125 C 2.203125 0.125 0.9375 -0.632812 0.59375 -2.15625 L 1.765625 -2.390625 C 1.898438 -1.847656 2.1875 -1.453125 2.625 -1.203125 C 3.070312 -0.953125 3.675781 -0.828125 4.4375 -0.828125 C 5.21875 -0.828125 5.820312 -0.957031 6.25 -1.21875 C 6.675781 -1.488281 6.890625 -1.882812 6.890625 -2.40625 C 6.890625 -2.695312 6.820312 -2.929688 6.6875 -3.109375 C 6.550781 -3.296875 6.363281 -3.445312 6.125 -3.5625 C 5.882812 -3.6875 5.597656 -3.789062 5.265625 -3.875 C 4.929688 -3.957031 4.5625 -4.046875 4.15625 -4.140625 C 3.445312 -4.296875 2.90625 -4.453125 2.53125 -4.609375 C 2.164062 -4.765625 1.875 -4.9375 1.65625 -5.125 C 1.445312 -5.320312 1.285156 -5.550781 1.171875 -5.8125 C 1.066406 -6.070312 1.015625 -6.367188 1.015625 -6.703125 C 1.015625 -7.472656 1.304688 -8.0625 1.890625 -8.46875 C 2.484375 -8.882812 3.328125 -9.09375 4.421875 -9.09375 C 5.429688 -9.09375 6.207031 -8.9375 6.75 -8.625 C 7.289062 -8.3125 7.671875 -7.78125 7.890625 -7.03125 L 6.6875 -6.828125 C 6.550781 -7.304688 6.300781 -7.648438 5.9375 -7.859375 C 5.570312 -8.078125 5.0625 -8.1875 4.40625 -8.1875 C 3.6875 -8.1875 3.132812 -8.066406 2.75 -7.828125 C 2.375 -7.585938 2.1875 -7.234375 2.1875 -6.765625 C 2.1875 -6.484375 2.257812 -6.253906 2.40625 -6.078125 C 2.5625 -5.898438 2.773438 -5.75 3.046875 -5.625 C 3.328125 -5.5 3.878906 -5.34375 4.703125 -5.15625 C 4.972656 -5.09375 5.242188 -5.03125 5.515625 -4.96875 C 5.796875 -4.90625 6.0625 -4.828125 6.3125 -4.734375 C 6.5625 -4.640625 6.796875 -4.53125 7.015625 -4.40625 C 7.234375 -4.28125 7.421875 -4.128906 7.578125 -3.953125 C 7.734375 -3.773438 7.859375 -3.566406 7.953125 -3.328125 C 8.046875 -3.085938 8.09375 -2.800781 8.09375 -2.46875 Z M 8.09375 -2.46875 "/></g></g></g><g fill="#000000" fill-opacity="1"><g transform="translate(247.801172, 99.919215)"><g><path d="M 4.578125 -7.96875 L 4.578125 0 L 3.375 0 L 3.375 -7.96875 L 0.296875 -7.96875 L 0.296875 -8.96875 L 7.65625 -8.96875 L 7.65625 -7.96875 Z M 4.578125 -7.96875 "/></g></g></g><g fill="#000000" fill-opacity="1"><g transform="translate(260.796431, 99.919215)"><g/></g></g><g fill="#000000" fill-opacity="1"><g transform="translate(269.691243, 99.919215)"><g><path d="M 8.6875 0 L 8.6875 -5.984375 C 8.6875 -6.640625 8.707031 -7.273438 8.75 -7.890625 C 8.539062 -7.128906 8.351562 -6.535156 8.1875 -6.109375 L 5.875 0 L 5.015625 0 L 2.671875 -6.109375 L 2.3125 -7.1875 L 2.109375 -7.890625 L 2.125 -7.1875 L 2.15625 -5.984375 L 2.15625 0 L 1.0625 0 L 1.0625 -8.96875 L 2.671875 -8.96875 L 5.046875 -2.75 C 5.128906 -2.5 5.210938 -2.226562 5.296875 -1.9375 C 5.378906 -1.65625 5.429688 -1.453125 5.453125 -1.328125 C 5.484375 -1.492188 5.550781 -1.75 5.65625 -2.09375 C 5.769531 -2.4375 5.847656 -2.65625 5.890625 -2.75 L 8.234375 -8.96875 L 9.78125 -8.96875 L 9.78125 0 Z M 8.6875 0 "/></g></g></g><g fill="#000000" fill-opacity="1"><g transform="translate(285.814586, 99.919215)"><g><path d="M 1.203125 0 L 1.203125 -8.96875 L 2.421875 -8.96875 L 2.421875 0 Z M 1.203125 0 "/></g></g></g><g fill="#000000" fill-opacity="1"><g transform="translate(294.709398, 99.919215)"><g><path d="M 1.0625 0 L 1.0625 -8.96875 L 2.28125 -8.96875 L 2.28125 -1 L 6.8125 -1 L 6.8125 0 Z M 1.0625 0 "/></g></g></g><g fill="#000000" fill-opacity="1"><g transform="translate(307.228012, 99.919215)"><g><path d="M 1.0625 0 L 1.0625 -8.96875 L 7.875 -8.96875 L 7.875 -7.96875 L 2.28125 -7.96875 L 2.28125 -5.09375 L 7.484375 -5.09375 L 7.484375 -4.109375 L 2.28125 -4.109375 L 2.28125 -1 L 8.125 -1 L 8.125 0 Z M 1.0625 0 "/></g></g></g></svg>