<svg width="272" height="22" viewBox="0 0 272 22" fill="none" xmlns="http://www.w3.org/2000/svg">
<g clip-path="url(#clip0_1434_230)">
<mask id="mask0_1434_230" style="mask-type:luminance" maskUnits="userSpaceOnUse" x="0" y="0" width="272" height="23">
<path d="M271.302 0.00308228H0.699219V22.0031H271.302V0.00308228Z" fill="white"/>
</mask>
<g mask="url(#mask0_1434_230)">
<path d="M0.699219 21.5814V0.283159H9.05285C10.5302 0.243824 12.0003 0.502356 13.3757 1.04337C14.4957 1.49126 15.4559 2.26495 16.1323 3.26455C16.8087 4.26415 17.1702 5.44376 17.1702 6.65109C17.1702 7.85843 16.8087 9.03804 16.1323 10.0376C15.4559 11.0372 14.4957 11.8109 13.3757 12.2588C12.0003 12.7998 10.5302 13.0584 9.05285 13.019H1.9475V21.5814H0.699219ZM1.9475 11.8833H8.98214C11.1364 11.8833 12.81 11.4165 14.0029 10.4829C15.1959 9.54934 15.7893 8.26898 15.7831 6.64186C15.8147 5.90636 15.6692 5.17404 15.3589 4.50662C15.0485 3.8392 14.5824 3.25626 13.9999 2.80695C12.8069 1.88156 11.1333 1.41784 8.97906 1.41579H1.9475V11.8833Z" fill="#3E2B2F"/>
<path d="M37.0382 21.6399C35.4087 21.6562 33.7891 21.3843 32.2541 20.8366C30.8497 20.3333 29.5545 19.5654 28.4386 18.5744C27.3537 17.5955 26.4864 16.3994 25.8927 15.0636C25.299 13.7278 24.9922 12.282 24.9922 10.8199C24.9922 9.35788 25.299 7.91212 25.8927 6.5763C26.4864 5.24048 27.3537 4.04438 28.4386 3.06547C29.5538 2.07428 30.8492 1.3073 32.2541 0.806376C35.353 -0.268914 38.7233 -0.268914 41.8222 0.806376C43.2158 1.31173 44.5003 2.07845 45.607 3.06547C46.6798 4.02052 47.5398 5.1908 48.1313 6.50028C48.7195 7.86427 49.0229 9.33427 49.0229 10.8199C49.0229 12.3056 48.7195 13.7756 48.1313 15.1396C47.5398 16.4491 46.6798 17.6194 45.607 18.5744C44.496 19.5627 43.2074 20.3304 41.8099 20.8366C40.2753 21.3858 38.6555 21.6577 37.0259 21.6399M37.0259 20.5288C38.4633 20.5441 39.8915 20.2979 41.2411 19.8024C42.4899 19.348 43.6385 18.655 44.6232 17.7619C45.5865 16.8815 46.3523 15.8066 46.8701 14.6081C47.3879 13.4096 47.6459 12.1148 47.627 10.8092C47.6381 9.48131 47.3688 8.16608 46.8369 6.94963C46.3175 5.78185 45.5628 4.73404 44.6201 3.87185C43.6376 2.9774 42.4882 2.28603 41.238 1.83744C38.5034 0.877185 35.5237 0.877185 32.7891 1.83744C31.5444 2.28785 30.4004 2.97912 29.4224 3.87185C28.4797 4.73404 27.725 5.78185 27.2057 6.94963C26.3957 8.75944 26.174 10.7782 26.5718 12.7209C26.9695 14.6636 27.9666 16.4323 29.4224 17.7773C30.4016 18.6676 31.5453 19.3577 32.7891 19.8086C34.146 20.3001 35.5799 20.544 37.0228 20.5288" fill="#3E2B2F"/>
<path d="M96.8478 21.6399C95.2183 21.6562 93.5987 21.3843 92.0638 20.8366C90.6602 20.3334 89.366 19.5654 88.2513 18.5744C87.1821 17.6189 86.3262 16.4486 85.7393 15.1396C85.1511 13.7756 84.8477 12.3056 84.8477 10.8199C84.8477 9.33427 85.1511 7.86427 85.7393 6.50028C86.3262 5.19132 87.1821 4.02093 88.2513 3.06547C89.3654 2.07431 90.6598 1.3073 92.0638 0.806376C95.1627 -0.268914 98.5329 -0.268914 101.632 0.806376C103.03 1.311 104.32 2.07769 105.432 3.06547C106.517 4.04437 107.384 5.24048 107.978 6.5763C108.572 7.91212 108.878 9.35788 108.878 10.8199C108.878 12.282 108.572 13.7278 107.978 15.0636C107.384 16.3994 106.517 17.5955 105.432 18.5744C104.319 19.5621 103.03 20.3297 101.632 20.8366C100.097 21.386 98.4774 21.658 96.8478 21.6399ZM96.8478 20.5288C98.2862 20.5437 99.7154 20.2976 101.066 19.8024C102.309 19.3463 103.451 18.6533 104.43 17.7619C105.394 16.8818 106.16 15.807 106.678 14.6085C107.197 13.41 107.455 12.115 107.437 10.8092C107.451 9.47702 107.182 8.15711 106.647 6.93732C106.128 5.76884 105.374 4.72078 104.43 3.85954C103.453 2.9669 102.31 2.2756 101.066 1.82512C98.3304 0.864887 95.3498 0.864887 92.6141 1.82512C91.3753 2.27925 90.2377 2.97257 89.2659 3.86569C88.3221 4.72693 87.5672 5.77499 87.0491 6.94348C86.5258 8.16656 86.256 9.48325 86.256 10.8138C86.256 12.1443 86.5258 13.461 87.0491 14.6841C87.5677 15.8523 88.3225 16.9003 89.2659 17.7619C90.2437 18.6525 91.3865 19.3426 92.6295 19.7932C93.9864 20.2844 95.4203 20.5283 96.8632 20.5134" fill="#3E2B2F"/>
<path d="M76.5361 17.8111C75.5939 18.6504 74.5088 19.3134 73.3324 19.7686C71.9635 20.2871 70.5099 20.5449 69.0464 20.5288C67.6065 20.5446 66.1755 20.3007 64.822 19.8086C63.5806 19.3565 62.4391 18.6666 61.4615 17.7773C60.5015 16.8913 59.7354 15.8158 59.2113 14.6186C58.6873 13.4214 58.4168 12.1286 58.4168 10.8215C58.4168 9.51443 58.6873 8.22154 59.2113 7.02436C59.7354 5.82719 60.5015 4.75169 61.4615 3.8657C62.4382 2.97437 63.5798 2.28321 64.822 1.83128C67.5778 0.859476 70.5844 0.871442 73.3324 1.86514C74.5107 2.31595 75.5958 2.9806 76.533 3.82569C76.8904 3.55455 77.2642 3.30581 77.6522 3.08087C76.5464 2.09195 75.2616 1.32408 73.8674 0.818694C70.7625 -0.264719 67.3827 -0.264719 64.2778 0.818694C62.8729 1.31962 61.5775 2.0866 60.4622 3.07779C59.3953 4.03048 58.5396 5.19635 57.9503 6.50028C57.362 7.86428 57.0586 9.33427 57.0586 10.82C57.0586 12.3056 57.362 13.7756 57.9503 15.1396C58.5381 16.448 59.3939 17.6182 60.4622 18.5744C61.5781 19.5654 62.8733 20.3333 64.2778 20.8366C65.8128 21.3843 67.4323 21.6563 69.0618 21.6399C70.7084 21.6594 72.345 21.38 73.892 20.8151C75.2797 20.3071 76.5587 19.5405 77.6614 18.556C77.2744 18.331 76.9016 18.0823 76.5453 17.8111" fill="#3E2B2F"/>
<path d="M130.678 21.5814V0.280083H137.995C139.867 0.280083 141.351 0.743799 142.447 1.67124C143.545 2.59457 144.092 3.85646 144.092 5.44768C144.118 6.5854 143.775 7.70094 143.114 8.62703C142.487 9.50987 141.577 10.1516 140.535 10.446C141.805 10.6546 142.963 11.3 143.809 12.2711C144.639 13.2553 145.077 14.5111 145.039 15.7983C145.061 16.8669 144.762 17.9175 144.181 18.8145C143.587 19.6987 142.76 20.4016 141.792 20.8458C140.677 21.3551 139.461 21.6065 138.235 21.5814H130.678ZM131.908 10.012H138.057C139.496 10.012 140.649 9.60884 141.525 8.80554C141.957 8.40575 142.298 7.91712 142.524 7.37314C142.75 6.82916 142.856 6.24268 142.835 5.65389C142.862 5.06905 142.755 4.48577 142.521 3.94897C142.288 3.41217 141.934 2.93618 141.488 2.55764C140.59 1.80051 139.376 1.42194 137.845 1.42194H131.923L131.908 10.012ZM131.908 20.4457H138.035C139.058 20.4666 140.072 20.2562 141.002 19.8302C141.818 19.4554 142.514 18.8634 143.016 18.1189C143.503 17.3723 143.755 16.4961 143.739 15.6044C143.756 14.7511 143.514 13.9127 143.044 13.2006C142.557 12.4929 141.877 11.9405 141.085 11.6094C140.157 11.2179 139.156 11.027 138.149 11.0492H131.908V20.4457Z" fill="#3E2B2F"/>
<path d="M155.105 21.5753V0.280083H167.671V1.41578H156.351V10.1167H165.165V11.2524H156.351V20.4396H167.813V21.5753H155.105Z" fill="#3E2B2F"/>
<path d="M178.006 21.5814H176.672L185.588 0.286232H187.036L195.919 21.5814H194.6L191.863 15.0504H180.715L178.006 21.5814ZM181.195 13.9116H191.421L186.301 1.60044L181.195 13.9116Z" fill="#3E2B2F"/>
<path d="M221.134 0.280083V12.0926C221.181 13.9179 220.824 15.7309 220.089 17.4018C219.46 18.8152 218.419 20.0058 217.104 20.8181C215.689 21.6386 214.074 22.0489 212.439 22.0031C210.81 22.0476 209.2 21.6339 207.794 20.8089C206.479 19.9955 205.437 18.8068 204.802 17.3956C204.069 15.7263 203.713 13.9155 203.76 12.0926V0.280083H205.008V12.1203C204.968 13.7222 205.277 15.3135 205.915 16.7831C206.458 18.0226 207.353 19.0748 208.489 19.8086C209.695 20.5023 211.062 20.8673 212.453 20.8673C213.845 20.8673 215.212 20.5023 216.418 19.8086C217.553 19.0753 218.446 18.0228 218.985 16.7831C219.618 15.3121 219.925 13.7214 219.886 12.1203V0.280083H221.134Z" fill="#3E2B2F"/>
<path d="M238.445 21.5753H237.197V1.41578H229.98V0.280083H245.652V1.41578H238.445V21.5753Z" fill="#3E2B2F"/>
<path d="M262.89 21.5753H261.642V12.4743L253.258 0.280083H254.777L262.279 11.3539L269.796 0.280083H271.299L262.89 12.4897V21.5753Z" fill="#3E2B2F"/>
</g>
</g>
<defs>
<clipPath id="clip0_1434_230">
<rect width="270.6" height="22" fill="white" transform="translate(0.699219)"/>
</clipPath>
</defs>
</svg>
