<svg width="167" height="54" viewBox="0 0 167 54" fill="none" xmlns="http://www.w3.org/2000/svg">
<path d="M70.8562 49.8931H69.9726V49.8937C71.5259 52.3642 74.2501 54 77.351 54C80.0645 54 82.4895 52.7469 84.0925 50.779C85.6973 52.7469 88.1223 54 90.8363 54C93.9372 54 96.6631 52.3631 98.2164 49.8913H97.3317C95.874 51.931 93.5067 53.2554 90.8363 53.2554C88.0086 53.2554 85.522 51.7707 84.0925 49.5259C82.6654 51.7707 80.1782 53.2554 77.351 53.2554C74.6794 53.2554 72.3133 51.931 70.8562 49.8931ZM90.8108 46.7778V44.9427H93.6906V43.8516H90.8108V42.2325H94.0453V41.1414H89.3848V47.8689H94.1946V46.7778H90.8108ZM85.0785 47.8689H86.4937L88.3525 41.142H87.0758L85.8817 45.8063L84.8409 41.142H83.4974L82.3667 45.8281L81.31 41.142H79.7217L81.5601 47.8689H82.9635L84.0082 43.5551L85.0785 47.8689ZM79.2941 47.8689L77.5864 45.3081C78.0332 45.1386 79.0107 44.5049 79.0107 43.361C79.0107 41.9246 77.9127 41.142 76.7571 41.142H73.689V47.8689H75.1155V42.1716H76.3306C76.9732 42.1716 77.5485 42.5968 77.5485 43.3983C77.5485 44.2027 76.8555 44.6399 76.0857 44.6399C75.9386 44.6399 75.8124 44.6434 75.7033 44.6232L77.5049 47.8689H79.2941ZM62.8804 47.8689L65.3178 41.1414H63.9761L62.2842 46.0889L62.2786 46.0752L60.6296 41.1414H59L61.4793 47.8689H62.8804ZM71.0219 44.4934C71.0219 45.8694 70.1581 46.9841 69.063 46.9841C67.9685 46.9841 67.1042 45.8694 67.1042 44.4934C67.1042 43.1185 67.9685 42.0038 69.063 42.0038C70.1581 42.0038 71.0219 43.1185 71.0219 44.4934ZM69.063 40.9277C67.1472 40.9277 65.595 42.5244 65.595 44.4934C65.595 46.463 67.1472 48.0591 69.063 48.0591C70.9789 48.0591 72.5316 46.463 72.5316 44.4934C72.5316 42.5244 70.9789 40.9277 69.063 40.9277ZM97.3114 39.0788H98.1977C96.6411 36.6243 93.9259 35 90.8363 35C88.1228 35 85.6973 36.2548 84.0931 38.2233C82.4895 36.2548 80.0639 35 77.3505 35C74.262 35 71.5485 36.6294 69.9924 39.0834H70.8776C72.3371 37.0615 74.6924 35.7458 77.3505 35.7458C80.1787 35.7458 82.6654 37.231 84.0931 39.4758C85.522 37.231 88.0086 35.7458 90.8363 35.7458C93.4943 35.7458 95.8519 37.0575 97.3114 39.0788ZM101.09 47.8689L99.3828 45.3081C99.8308 45.1386 100.808 44.5049 100.808 43.361C100.808 41.9246 99.7092 41.142 98.5541 41.142H95.4854V47.8689H96.9114V42.1716H98.1276C98.7696 42.1716 99.3449 42.5968 99.3449 43.3983C99.3449 44.2027 98.652 44.6399 97.8832 44.6399C97.7356 44.6399 97.6089 44.6434 97.4997 44.6232L99.3013 47.8689H101.09ZM102.059 47.8689H103.484V41.142H102.059V47.8689ZM108 47.8683L105.229 44.1366L107.689 41.142H105.979L103.669 44.2153L106.099 47.8689H108V47.8683Z" fill="#00AC46"/>
<path d="M0 21.4157V7.64373L4.39012 6.35472V10.8797H8.82896V14.527H4.39012V20.639C4.39012 22.8341 5.63988 23.8809 8.5096 23.8809V27.967H7.56431C2.60005 27.967 0 25.6371 0 21.4157Z" fill="#00AC46"/>
<path d="M11.9974 27.967V4.46364H16.3876V12.6021C17.4682 11.3528 19.2234 10.3394 21.4862 10.3394C25.5051 10.3394 27.8007 13.0409 27.8007 17.5997V27.967H23.4116V18.343C23.4116 15.7763 22.128 14.4255 20.0344 14.4255C18.5826 14.4255 17.3329 15.1011 16.3876 16.3166V27.967H11.9974Z" fill="#00AC46"/>
<path d="M39.7987 28.5073C34.2613 28.5073 30.4791 24.7252 30.4791 19.4574C30.4791 14.0543 34.2613 10.3394 39.1917 10.3394C44.3918 10.3394 47.7013 14.0205 47.7013 19.5246V20.7744H35.0036C35.3757 23.3744 37.4016 24.7252 39.7987 24.7252C41.8594 24.7252 43.3112 23.8471 44.5271 22.8341L46.8904 25.6033C45.3033 27.2242 42.8724 28.5073 39.7987 28.5073ZM43.345 17.735C43.0406 15.4046 41.5211 13.919 39.1917 13.919C36.9628 13.919 35.2742 15.4046 34.9698 17.735H43.345Z" fill="#00AC46"/>
<path d="M50.6349 27.967V10.8797H54.8559V13.0409C55.7673 11.4538 57.3882 10.4409 59.4142 10.4409C59.9216 10.4409 60.1913 10.4747 60.5624 10.5419V14.6618C60.1574 14.5947 59.6848 14.527 59.1445 14.527C57.4559 14.527 55.9026 15.3713 55.025 17.127V27.967H50.6349Z" fill="#00AC46"/>
<path d="M63.4189 27.967V10.8797H67.6737V12.7031C68.8559 11.2852 70.5444 10.3394 72.638 10.3394C74.8331 10.3394 76.6231 11.4538 77.6699 13.2434C79.054 11.4876 80.8103 10.3394 83.4442 10.3394C87.1248 10.3394 89.6243 13.1424 89.6243 17.6674V27.967H85.2342V18.2077C85.2342 15.6414 83.883 14.4255 82.0939 14.4255C80.5068 14.4255 79.4262 15.2021 78.6829 16.3166V27.967H74.3604V17.9037C74.3604 15.5738 73.0092 14.4255 71.2201 14.4255C69.7345 14.4255 68.6538 15.1683 67.8091 16.3166V27.967H63.4189Z" fill="#00AC46"/>
<path d="M92.2484 19.4236C92.2484 14.223 95.9629 10.3394 101.4 10.3394C106.769 10.3394 110.517 14.223 110.517 19.4236C110.517 24.6237 106.769 28.5073 101.4 28.5073C95.9629 28.5073 92.2484 24.6237 92.2484 19.4236ZM101.4 24.3202C104.101 24.3202 106.027 22.2938 106.027 19.4236C106.027 16.5191 104.101 14.527 101.4 14.527C98.6644 14.527 96.74 16.5529 96.74 19.4236C96.74 22.2938 98.6644 24.3202 101.4 24.3202Z" fill="#00AC46"/>
<path d="M113.141 27.967V10.8797H117.396V12.7031C118.578 11.2852 120.267 10.3394 122.36 10.3394C124.555 10.3394 126.345 11.4538 127.391 13.2434C128.776 11.4876 130.533 10.3394 133.167 10.3394C136.847 10.3394 139.346 13.1424 139.346 17.6674V27.967H134.956V18.2077C134.956 15.6414 133.605 14.4255 131.815 14.4255C130.228 14.4255 129.148 15.2021 128.404 16.3166V27.967H124.082V17.9037C124.082 15.5738 122.732 14.4255 120.942 14.4255C119.456 14.4255 118.375 15.1683 117.531 16.3166V27.967H113.141Z" fill="#00AC46"/>
<path d="M155.789 19.4574L150.25 10.8797H155.046L158.558 16.5867L162.205 10.8797H166.763L161.09 19.1868L167 27.967H162.171L158.355 22.0236L154.573 27.967H150.014L155.789 19.4574Z" fill="#00AC46"/>
<path d="M147.44 12.5536C145.709 12.5534 144.451 11.4033 143.594 9.03703L143.306 8.23045L143.167 8.27248C143.044 8.30929 140.337 9.1308 139.352 9.94235C139.244 9.62101 139.168 9.3039 139.125 8.99649C138.825 6.9349 139.959 5.46972 142.591 4.51665L143.399 4.22665L143.357 4.08762C143.32 3.96525 142.497 1.26098 141.687 0.274829C142.008 0.167633 142.326 0.0912782 142.632 0.0477532C142.851 0.0159177 143.065 0 143.269 0C144.999 0 146.257 1.14956 147.113 3.51458L147.405 4.32663L147.544 4.28435C147.666 4.24704 150.366 3.42007 151.354 2.60976C151.464 2.94353 151.539 3.25517 151.58 3.55661C151.882 5.61821 150.748 7.08239 148.114 8.03397L147.305 8.32521L147.347 8.46399C147.384 8.58636 148.209 11.2901 149.019 12.277C148.696 12.3845 148.379 12.4613 148.073 12.5061C147.856 12.5374 147.643 12.5536 147.44 12.5536Z" fill="#00AC46"/>
<path d="M147.692 15.2338C147.692 16.4211 147.692 27.967 147.692 27.967H143.302V12.5536C143.302 12.5536 145.115 15.2338 147.692 15.2338Z" fill="#00AC46"/>
</svg>
